<?xml version="1.0" encoding="UTF-8"?>
<svg id="Capa_2" data-name="Capa 2" xmlns="http://www.w3.org/2000/svg" viewBox="0 0 252.72 171.98">
  <defs>
    <style>
      .cls-1 {
        fill: #2226f7;
      }

      .cls-2 {
        fill: #fbd528;
      }
    </style>
  </defs>
  <g id="Versiones">
    <g>
      <g>
        <path class="cls-2" d="M165.51,44.09c3.05,2.52,6.1,5.03,9.3,7.68,1.49.67,3.07,1.23,4.7,1.66-.1-1.35-.08-2.65.36-3.82,1.08-2.87,3.49-3.95,6.33-4.31,1.01-.13,2.96.24,3.83-.16.1-.05,1.29-1.59,1.86-2.28,2.22-2.67,5.05-4.77,7.82-6.82,5.69-4.21,11.5-8.25,17.36-12.22-.19-.73-.36-1.34-.52-1.95-.68-2.59-1.67-4.93-3.9-6.68-5.32-4.17-10.54-8.46-15.82-12.67-4.02-3.21-7.17-3.31-11.42-.44-6.67,4.5-13.31,9.05-20.04,13.45-1.9,1.24-3,2.85-3.31,4.95-.69,4.77-1.25,9.55-1.8,14.34-.32,2.83.93,5.14,2.74,7.17.72.81,1.66,1.42,2.5,2.12Z"/>
        <path class="cls-1" d="M190.85,2.17c-1.24.53-2.43.84-3.41,1.49-6.55,4.33-13.05,8.73-19.56,13.12-3.03,2.04-3.16,2.97-.72,5.76,4.4,5.04,9.7,8.98,15.19,12.73,3.21,2.19,5.93,1.96,9-.18,6.44-4.49,13-8.8,19.51-13.18,2.51-1.69,2.6-2.88.28-4.74-5.57-4.47-11.14-8.94-16.78-13.33-.96-.75-2.25-1.09-3.51-1.67Z"/>
        <path class="cls-1" d="M165.78,41.76c3.05,2.57,6.16,5.07,9.27,7.56,2.93,2.35,2.21,2.46,4.71.69.04-.14.07-.28.12-.41,1.08-2.87,3.49-3.95,6.33-4.31,1.01-.13,2.96.24,3.83-.16.1-.05,1.29-1.59,1.86-2.28,2.22-2.67,5.05-4.77,7.82-6.82,5.07-3.75,10.24-7.36,15.45-10.91-.29-1.58-.85-3.12-1.3-4.66-.63.57-1.06,1.06-1.58,1.41-7.42,4.99-14.83,9.98-22.28,14.91-2.19,1.45-4.43,1.33-6.7-.07-7.2-4.44-13.84-9.51-18.97-16.57-.16.94-.33,1.74-.43,2.56-.45,3.57-.78,7.16-1.36,10.71-.57,3.48.64,6.18,3.23,8.36Z"/>
        <path class="cls-1" d="M190.85,2.17c1.26.58,2.55.92,3.51,1.67,5.64,4.39,11.21,8.86,16.78,13.33,2.32,1.86,2.22,3.05-.28,4.74-6.51,4.38-13.07,8.69-19.51,13.18-3.07,2.14-5.78,2.37-9,.18-5.5-3.76-10.8-7.69-15.19-12.73-2.43-2.79-2.31-3.72.72-5.76,6.51-4.38,13.02-8.78,19.56-13.12.98-.65,2.17-.96,3.41-1.49Z"/>
        <path class="cls-1" d="M165.78,41.76c3.05,2.57,6.16,5.07,9.27,7.56,2.93,2.35,2.21,2.46,4.71.69.04-.14.07-.28.12-.41,1.08-2.87,3.49-3.95,6.33-4.31,1.01-.13,2.96.24,3.83-.16.1-.05,3.86,2.66,4.44,1.97,2.22-2.67,2.47-9.02,5.25-11.07,5.07-3.75,10.24-7.36,15.45-10.91-.29-1.58-.85-3.12-1.3-4.66-.63.57-1.06,1.06-1.58,1.41-7.42,4.99-14.83,9.98-22.28,14.91-2.19,1.45-4.43,1.33-6.7-.07-7.2-4.44-13.84-9.51-18.97-16.57-.16.94-.33,1.74-.43,2.56-.45,3.57-.78,7.16-1.36,10.71-.57,3.48.64,6.18,3.23,8.36Z"/>
      </g>
      <g>
        <path class="cls-2" d="M183.36,20.84c-.16-.24-.21-.47-.16-.71.05-.24.2-.43.44-.59.25-.17.5-.23.74-.2.24.04.44.18.6.41s.21.47.16.71c-.05.24-.2.44-.46.61-.24.16-.48.22-.72.18-.24-.04-.44-.18-.6-.42ZM185.81,24.49c-.16-.24-.21-.47-.16-.71.05-.24.2-.43.44-.6.25-.17.5-.23.74-.19.24.04.44.18.6.41s.21.47.16.71c-.05.24-.2.44-.46.61-.24.16-.48.22-.72.18-.24-.04-.44-.18-.6-.42Z"/>
        <path class="cls-2" d="M191.95,22.84c.17-.17.36-.43.56-.76.2-.33.35-.73.44-1.19.09-.46.09-.96,0-1.52-.09-.55-.35-1.14-.76-1.76s-.89-1.12-1.36-1.43c-.47-.31-.93-.51-1.38-.6-.45-.09-.87-.11-1.26-.05-.39.06-.72.14-.99.24l-.49-1.24c.52-.23,1.08-.37,1.67-.44.59-.07,1.19-.02,1.78.13.6.16,1.18.44,1.74.84.57.41,1.09.96,1.56,1.67s.8,1.41.96,2.08c.16.67.2,1.31.11,1.92-.09.6-.27,1.16-.56,1.68-.29.52-.64.97-1.06,1.35l-.98-.94Z"/>
      </g>
      <path class="cls-1" d="M64.42,105.5c4.87-5.44,10.69-9.88,17.22-13.14l-2.2-.9c.92,2.63-1.59,5.53-3.56,6.98-2.24,1.65-4.94,2.44-7.7,2.25l1.3,2.26c2.45-3.44,5.66-6.24,9.35-8.28l-2.26-1.3c.01,1.43-.57,2.61-1.66,3.53l2.12,2.12c1.62-1.76,3.35-3.42,5.18-4.96l-2.51-1.46c-.56,1.83-2.26,2.98-3.8,3.95-2.03,1.28-4.16,2.41-6.37,3.33l1.9,1.45c0-.48.45-.84.78-1.15.5-.49,1.02-.96,1.54-1.43,1-.9,2.02-1.77,3.07-2.62,2.13-1.72,4.37-3.3,6.68-4.76l-2.26-1.3c-.13,1.34-1.07,2.66-2.33,3.17l1.9,1.45c.07-.68.37-1.27.83-1.76l-2.56-1.06c-.16,1.29-.95,2.49-2,3.21-1.58,1.08-.08,3.68,1.51,2.59,2.02-1.39,3.19-3.38,3.49-5.8.16-1.31-1.74-1.95-2.56-1.06-1.03,1.12-1.56,2.38-1.71,3.88-.09.9,1.04,1.79,1.9,1.45,2.6-1.06,4.27-3.26,4.53-6.06.11-1.13-1.35-1.87-2.26-1.3-2.72,1.73-5.34,3.63-7.83,5.68-1.22,1-2.4,2.04-3.56,3.12s-2.17,2.13-2.16,3.75c0,.87.97,1.83,1.9,1.45,2.66-1.11,5.23-2.4,7.64-3.99,2.04-1.34,3.89-2.98,4.63-5.39.47-1.54-1.43-2.37-2.51-1.46-1.83,1.55-3.56,3.2-5.18,4.96-1.32,1.44.66,3.36,2.12,2.12,1.65-1.4,2.56-3.49,2.54-5.65-.01-1.15-1.26-1.85-2.26-1.3-4.15,2.3-7.67,5.5-10.42,9.36-.71,1,.27,2.19,1.3,2.26,3.61.25,7.17-.99,9.98-3.23s5.45-6.15,4.18-9.79c-.33-.95-1.3-1.35-2.2-.9-6.73,3.37-12.8,8.01-17.83,13.61-1.29,1.43.83,3.56,2.12,2.12h0Z"/>
      <path class="cls-1" d="M90.14,81.89l6.67,1.33c1.82.36,4.07.7,5.44-.89.84-.97.3-2.53-1.06-2.56-1.52-.04-3.04-.08-4.56-.11-.81-.02-1.5.7-1.5,1.5s.69,1.48,1.5,1.5c1.52.04,3.04.08,4.56.11l-1.06-2.56c-.06.08-.12.14-.2.21.12-.09.11-.08-.03,0-.31.16.2,0-.16.06-.09.03-.18.05-.28.06.16-.02.15-.02-.04,0-.15,0-.3,0-.45,0-.05,0-.63-.06-.36-.02-.15-.02-.3-.05-.45-.08-.47-.09-.93-.19-1.4-.28l-5.84-1.17c-.79-.16-1.62.23-1.85,1.05-.2.74.25,1.69,1.05,1.85h0Z"/>
      <path class="cls-1" d="M162.37,55.98c-1.12-4.08-2.31-8.13-3.37-12.22-.85-3.3-2.07-6.22-4.98-8.4-5.14-3.87-10.08-8-15.1-12.04-4.02-3.23-7.1-3.4-11.41-.5-6.73,4.52-13.41,9.11-20.18,13.57-2.22,1.46-3.1,3.46-3.35,5.94-.08.85-.3,1.68-.5,2.8-.08-.05-.16-.09-.24-.14,0,.42-.02.85-.12,1.31-.07.47-.14.94-.21,1.42-.15,1.45-.79,2.58-1.67,3.37-1.35,1.72-3.66,2.05-5.59,1.36-.12.5-.24,1.01-.37,1.51-1.11,4.3-5.69,4.41-8.19,2.03-.65,1.24-1.27,2.5-1.88,3.77.15,1.01-.01,2.07-.63,3.05-.35.56-.73,1.1-1.1,1.64,1.1.69,2.2,1.37,3.31,2.04,1.24.76,2.57,1.49,3.92,2.22.13-.48.32-.94.53-1.34.61-1.16,1.78-1.91,2.99-2.3,1.2-.39,2.78-.12,3.85.5,1.2.7,1.8,1.74,2.3,2.99.4,1.02.75,2.06.98,3.14,0,0,0,0,0,0,.86-1.32,1.88-2.45,3.16-3.48,1.4-1.11,2.98-1.99,4.59-2.75.63-.29,1.68-.97,2.45-1.08,1.08-3.61,7.31-5.24,9.3-1.15.18.38.35.78.5,1.2,0,0,0,0,0,0,.13.33.26.65.39.98.23.58.33,1.15.31,1.69,1.13,5.57,1.03,12.61,5.42,15.29.05-.05.1-.09.15-.13.48-.49,1.09-.88,1.82-1.11.22-.09.47-.16.78-.21,1.72-.27,3.6-.61,5.02-1.54,8.25-5.38,16.39-10.92,24.54-16.44,2.72-1.84,3.43-3.84,2.57-6.99Z"/>
      <path class="cls-1" d="M217.37,78.98c-1.12-4.08-2.31-8.13-3.37-12.22-.85-3.3-2.07-6.22-4.98-8.4-5.14-3.87-10.08-8-15.1-12.04-4.02-3.23-7.1-3.4-11.41-.5-6.73,4.52-13.41,9.11-20.18,13.57-2.22,1.46-3.1,3.46-3.35,5.94-.08.85-.3,1.68-.5,2.8-.08-.05-.16-.09-.24-.14,0,.42-.02.85-.12,1.31-.07.47-.14.94-.21,1.42-.15,1.45-.79,2.58-1.67,3.37-1.35,1.72-3.66,2.05-5.59,1.36-.12.5-.24,1.01-.37,1.51-1.11,4.3-5.69,4.41-8.19,2.03-.65,1.24-1.27,2.5-1.88,3.77.15,1.01-.01,2.07-.63,3.05-.35.56-.73,1.1-1.1,1.64,1.1.69,2.2,1.37,3.31,2.04,1.24.76,2.57,1.49,3.92,2.22.13-.48.32-.94.53-1.34.61-1.16,1.78-1.91,2.99-2.3,1.2-.39,2.78-.12,3.85.5,1.2.7,1.8,1.74,2.3,2.99.4,1.02.75,2.06.98,3.14,0,0,0,0,0,0,.86-1.32,1.88-2.45,3.16-3.48,1.4-1.11,2.98-1.99,4.59-2.75.63-.29,1.68-.97,2.45-1.08,1.08-3.61,7.31-5.24,9.3-1.15.18.38.35.78.5,1.2,0,0,0,0,0,0,.13.33.26.65.39.98.23.58.33,1.15.31,1.69,1.13,5.57.4,11.99,5.42,15.29.05-.05.1-.09.15-.13.48-.49,1.09-.88,1.82-1.11.22-.09.47-.16.78-.21,1.72-.27,3.6-.61,5.02-1.54,8.25-5.38,16.39-10.92,24.54-16.44,2.72-1.84,3.43-3.84,2.57-6.99Z"/>
      <path class="cls-2" d="M130.64,57.3c-1.09.49-2.34.54-3.46.12-.41-.16-.78-.32-1.14-.52-6.39-3.7-12.12-8.24-17.01-13.8-2.16-2.46-2.01-3.58.67-5.39,6.85-4.6,13.69-9.21,20.54-13.8,1.73-1.16,4.01-1.07,5.63.23,5.75,4.57,11.49,9.15,17.22,13.75,2.35,1.88,2.32,3.13-.1,4.76-6.67,4.49-13.33,9-20.04,13.43-.73.48-1.53.87-2.33,1.23Z"/>
      <path class="cls-2" d="M106.41,40.79c4.23,6.23,9.88,10.73,15.93,14.77,6.24,4.16,6.85,4.08,13.07-.12,5.92-3.99,11.85-7.96,17.76-11.98.98-.67,1.83-1.51,2.79-2.31,1.42,5.05,2.93,10.23,4.33,15.44.57,2.1-.28,3.84-2.03,5.03-8.09,5.49-16.2,10.96-24.35,16.35-.86.57-2.04.8-3.1.89-2.57.21-3.05-.24-3.75-2.74-1.08-3.9-2.26-7.78-3.26-11.7-.57-2.24-1.81-3.92-3.57-5.32-4.48-3.57-8.9-7.2-13.41-10.73-1-.78-1.35-1.58-1.13-2.79.29-1.57.48-3.16.72-4.79Z"/>
      <g>
        <path class="cls-1" d="M128.07,79.03c-.98-2.85-1.84-5.74-2.47-8.68-1.04-4.84-2.15-9.1-6.88-11.85-3.8-2.21-7.35-4.83-10.4-8-6.56-6.83-10.14-7.55-16.81-2.19-5.54,4.45-11.54,8.24-17.7,11.79-2.57,1.48-3.55,3.59-3.82,6.23-.08.85-.3,1.68-.5,2.8-1.72-1.13-3.4-1.55-5.09-1.43-1.5.19-2.84.7-3.94,1.28-.18.11-.38.22-.59.33-1.2.71-2.02,1.43-2.3,1.69l-.24.19c-2.62,1.78-4.68,3.16-6.68,4.49-.16.13-.33.25-.51.36-.35.22-.7.45-1.05.68-1.97,1.3-4.02,2.65-6.61,4.38q-6,4-6.34,8.77v.02c-.1,1.29-1.45,2.05-2.63,1.53-3.29-1.46-6.17-.29-9.03,1.68-5.31,3.68-8.06,5.54-9.61,6.51-3.15,2.15-6.3,4.31-9.53,6.34-2.92,1.83-3.71,4.59-3.87,7.97-.13,2.82-.43,5.64-1.07,8.39-1.26,5.42.48,9.49,5.3,12.6,5.5,3.54,10.53,7.74,15.19,12.33,4.4,4.33,8.02,4.86,12.49,1.84,7.09-4.79,14.22-9.52,21.29-14.33,2.58-1.75,5.54-3.21,5.95-6.08,2.54-.89,4.84-1.23,6.62-2.39,8.36-5.43,16.61-11.04,24.81-16.71,1-.69,1.74-1.96,2.26-3.12.36-.79,1.08-1.36,1.94-1.5,1.72-.27,3.61-.61,5.02-1.54,8.25-5.38,16.39-10.92,24.54-16.44,2.99-2.02,3.55-4.24,2.27-7.95ZM75.71,61.71c6.57-4.42,13.14-8.83,19.71-13.25,2.22-1.49,5.15-1.37,7.24.29,5.49,4.37,10.97,8.74,16.44,13.13,2.35,1.88,2.32,3.13-.1,4.76-6.67,4.49-13.33,9-20.04,13.43-1.25.83-2.71,1.36-4.02,2-1.15-.46-2.09-.71-2.9-1.18-6.39-3.7-12.12-8.24-17.01-13.8-2.16-2.46-2.01-3.58.67-5.39ZM41.83,84.44c6.51-4.39,13.01-8.79,19.56-13.13.02-.02.05-.03.07-.05,1.88-1.2,4.34-1.27,6.25-.12.15.09.3.19.43.3,5.69,4.42,11.32,8.94,16.94,13.45,2.57,2.06,2.17,3.29-1.14,5.23-6.39,3.73-12.52,7.85-18.37,12.38-3.12,2.42-5.8,2.73-8.99.62-5.66-3.75-11.03-7.8-15.52-12.94-2.42-2.78-2.31-3.66.77-5.75ZM7.41,107.53c6.56-4.43,13.13-8.85,19.69-13.28,2.2-1.48,5.11-1.37,7.19.27,5.63,4.45,11.24,8.92,16.84,13.41,2,1.6,1.9,2.94-.27,4.4-6.62,4.46-13.22,8.94-19.88,13.35-.74.49-1.53.89-2.33,1.27-1.44.69-3.16.74-4.56-.05,0,0-.01,0-.02-.01-6.59-3.77-12.5-8.39-17.46-14.17-2.11-2.46-1.94-3.36.78-5.19ZM55.76,131.57c-7.92,5.39-15.88,10.73-23.86,16.04-2.49,1.66-5.76,1.48-8.13-.42-6.22-4.99-12.43-9.99-18.54-15.12-2.44-2.05-3.47-4.74-2.91-8.1.73-4.37,1.12-8.79,1.68-13.33,5.55,7.46,12.5,12.86,20.28,17.26,2.09,1.18,4.16.4,6-.82,6.37-4.23,12.72-8.5,19.07-12.78,1.42-.96,2.78-2.02,4.31-3.14.25.84.57,1.84.86,2.85,1.11,3.89,2.23,7.78,3.31,11.68.72,2.62.18,4.36-2.06,5.88ZM86.9,110.72c-6.78,4.6-13.59,9.16-20.4,13.73-.71.47-1.46.88-2.27,1.14-2.93.93-4.54.02-5.41-2.96-1.11-3.83-2.27-7.64-3.24-11.5-.56-2.2-1.81-3.79-3.51-5.15-4.22-3.38-8.38-6.84-12.67-10.13-1.48-1.14-2.29-2.22-1.74-4.16.34-1.21.35-2.52.55-4.15,3.24,5.1,7.48,8.63,11.85,12.01,2.03,1.57,4.29,2.85,6.36,4.37,4.19,3.08,8.03,1.2,12.38-3.36,3.9-4.09,8.74-7.06,14.04-9,1.98-.72,3.21-1.99,4.96-3.41,1.07,3.72,2.17,7.49,3.23,11.27q1.99,7.12-4.14,11.3ZM124.26,85.61c-8.09,5.49-16.2,10.96-24.35,16.35-.86.57-2.04.8-3.1.89-2.57.21-3.05-.24-3.75-2.74-1.08-3.9-2.26-7.78-3.26-11.7-.57-2.24-1.81-3.92-3.57-5.32-4.48-3.57-8.9-7.2-13.41-10.73-1-.78-1.35-1.58-1.13-2.79.29-1.57.48-3.16.72-4.79,4.23,6.23,9.88,10.73,15.93,14.77,3.94,2.63,9.08,2.57,13.01-.08,5.94-4.01,11.9-7.99,17.82-12.02.98-.67,1.83-1.51,2.79-2.31,1.42,5.05,2.93,10.23,4.33,15.44.57,2.1-.28,3.84-2.03,5.03Z"/>
        <path class="cls-2" d="M4.01,110.64c5.55,7.46,12.5,12.86,20.28,17.26,2.09,1.18,4.16.4,6-.82,6.37-4.23,12.72-8.5,19.07-12.78,1.42-.96,2.78-2.02,4.31-3.14.25.84.57,1.84.86,2.85,1.11,3.89,2.23,7.78,3.31,11.68.72,2.63.18,4.36-2.06,5.88-7.92,5.39-15.88,10.73-23.86,16.04-2.49,1.66-5.76,1.48-8.13-.42-6.22-4.99-12.43-9.99-18.54-15.12-2.44-2.05-3.47-4.74-2.91-8.1.73-4.37,1.12-8.79,1.68-13.33Z"/>
        <path class="cls-2" d="M61.46,71.26c1.88-1.2,4.34-1.27,6.24-.12.15.09.3.19.43.3,5.69,4.42,11.32,8.94,16.94,13.45,2.57,2.06,2.17,3.29-1.14,5.23-6.39,3.73-12.52,7.86-18.37,12.39-3.12,2.42-5.8,2.73-8.99.62-5.66-3.75-11.03-7.8-15.52-12.94-2.42-2.78-2.31-3.66.77-5.75,6.51-4.39,13.01-8.79,19.56-13.13.02-.02.05-.03.07-.05Z"/>
        <path class="cls-2" d="M28.66,126.95c-1.44.69-3.16.74-4.56-.05,0,0-.01,0-.02-.01-6.59-3.77-12.5-8.39-17.46-14.17-2.11-2.46-1.94-3.36.78-5.19,6.56-4.43,13.13-8.85,19.69-13.28,2.2-1.48,5.11-1.37,7.19.27,5.63,4.45,11.24,8.92,16.84,13.41,2,1.6,1.9,2.94-.27,4.4-6.62,4.46-13.22,8.94-19.88,13.35-.74.49-1.53.89-2.33,1.27Z"/>
        <path class="cls-2" d="M96.69,81.28c-1.13.51-2.41.57-3.57.12-.39-.15-.74-.31-1.08-.5-6.39-3.7-12.12-8.24-17.01-13.8-2.16-2.46-2.01-3.58.67-5.39,6.82-4.58,13.63-9.17,20.45-13.74,1.78-1.19,4.13-1.1,5.81.23,5.72,4.55,11.43,9.11,17.14,13.68,2.35,1.88,2.32,3.13-.1,4.76-6.67,4.49-13.33,9-20.04,13.43-.72.47-1.5.85-2.28,1.2Z"/>
        <path class="cls-2" d="M72.41,64.79c4.23,6.23,9.88,10.73,15.93,14.77,6.24,4.16,6.85,4.08,13.07-.12,5.92-3.99,11.85-7.96,17.76-11.98.98-.67,1.83-1.51,2.79-2.31,1.42,5.05,2.93,10.23,4.33,15.44.57,2.1-.28,3.84-2.03,5.03-8.09,5.49-16.2,10.96-24.35,16.35-.86.57-2.04.8-3.1.89-2.57.21-3.05-.24-3.75-2.74-1.08-3.9-2.26-7.78-3.26-11.7-.57-2.24-1.81-3.92-3.57-5.32-4.48-3.57-8.9-7.2-13.41-10.73-1-.78-1.35-1.58-1.13-2.79.29-1.57.48-3.16.72-4.79Z"/>
        <path class="cls-2" d="M38.22,87.54c3.24,5.1,7.48,8.63,11.85,12.01,2.03,1.57,4.29,2.85,6.36,4.37,2.97,2.19,5.78,1.87,8.71-.13,6.53-4.46,13.14-8.83,19.69-13.26.99-.67,1.88-1.5,2.98-2.38,1.07,3.72,2.17,7.49,3.23,11.27q1.99,7.12-4.14,11.3c-6.71,4.55-13.44,9.06-20.18,13.58-.69.46-1.42.92-2.2,1.19-3.11,1.09-4.81.22-5.7-2.86-1.11-3.83-2.27-7.64-3.24-11.5-.56-2.2-1.81-3.79-3.51-5.15-4.22-3.38-8.38-6.84-12.67-10.13-1.48-1.14-2.29-2.22-1.74-4.16.34-1.21.35-2.52.55-4.15Z"/>
      </g>
      <path class="cls-1" d="M30.84,110.05l-4.31,3.1,4.62,5.25-2.61,1.88-11.03-12.54,2.61-1.88,4.49,5.11,4.31-3.1-4.49-5.11,2.61-1.88,11.03,12.54-2.61,1.88-4.62-5.25Z"/>
      <path class="cls-1" d="M56.88,92.31c-.86-.9-1.47-1.83-1.84-2.77-.37-.94-.51-1.88-.42-2.8.09-.93.4-1.82.93-2.68.53-.86,1.27-1.66,2.22-2.41,1-.79,2.02-1.36,3.06-1.7s2.07-.49,3.08-.42c1.01.07,1.99.35,2.93.83.95.48,1.82,1.15,2.63,2,.86.9,1.47,1.83,1.84,2.77.37.94.51,1.88.42,2.8-.09.93-.4,1.82-.93,2.68s-1.27,1.66-2.22,2.41c-1,.79-2.02,1.36-3.06,1.7s-2.07.49-3.08.42c-1.01-.07-1.99-.35-2.93-.83-.95-.48-1.82-1.15-2.63-2ZM60.07,89.79c.45.47.94.86,1.46,1.14.52.29,1.06.48,1.62.57.56.09,1.1.07,1.64-.07.54-.13,1.05-.4,1.54-.78.92-.73,1.42-1.58,1.49-2.57.07-.99-.44-2.06-1.53-3.21-.94-.99-1.97-1.58-3.09-1.76-1.12-.18-2.18.12-3.18.91-.44.35-.8.74-1.06,1.16-.26.42-.41.88-.42,1.37-.02.49.09,1.01.33,1.55s.64,1.11,1.2,1.7Z"/>
      <path class="cls-1" d="M86.66,57.95l3.7-2.58,8.05,9.4c.9,1.04,1.63,1.69,2.2,1.95.57.25,1.1.21,1.58-.13.36-.25.62-.5.77-.75.16-.25.28-.54.37-.86l2.42,1.24c-.07.29-.15.56-.23.83-.09.27-.2.52-.35.76-.14.24-.33.48-.55.71-.22.23-.49.46-.82.68-1.09.76-2.19,1-3.29.73-1.1-.27-2.16-1-3.19-2.2l-7.32-8.54-1.44,1.01-1.92-2.24Z"/>
      <path class="cls-1" d="M120.74,37.13c.49-.76,1.12-1.54,1.9-2.36s1.81-1.64,3.11-2.47c.94-.6,1.81-1,2.63-1.22.82-.21,1.58-.26,2.28-.14.7.12,1.34.39,1.94.8.59.41,1.14.95,1.65,1.61.65.84,1.18,1.58,1.58,2.22s.78,1.19,1.14,1.65c.27.35.59.72.96,1.13.22.21.42.41.6.62l1.75-1.12,2.12,2.73-4.53,2.89-1.66-1.46-.13.09c.04.74-.13,1.51-.5,2.3-.37.79-1.12,1.55-2.25,2.27-1.34.86-2.66,1.21-3.96,1.05-1.3-.16-2.37-.78-3.22-1.88-.54-.7-.87-1.38-.98-2.06-.11-.68-.03-1.35.24-2.01.28-.66.72-1.3,1.34-1.93.62-.63,1.39-1.24,2.3-1.82.32-.21.67-.41,1.06-.6s.85-.44,1.39-.74c-.09-.19-.2-.36-.33-.53l-.37-.47c-.49-.63-1.03-.95-1.64-.98-.6-.02-1.29.21-2.06.7-.91.58-1.65,1.22-2.21,1.9-.57.68-1.01,1.29-1.35,1.83l-2.79-2ZM132.4,43.3c.85-.54,1.38-1.1,1.58-1.66s.27-1.07.21-1.53l-1.15-1.49c-.2.08-.5.21-.89.4s-.79.41-1.2.67c-.34.22-.65.46-.95.73s-.52.56-.7.85-.26.59-.26.89c0,.3.1.59.32.87.36.46.79.73,1.28.8.49.07,1.08-.11,1.75-.54Z"/>
      <g>
        <path class="cls-1" d="M193.12,46.3c-.07.47-.14.94-.21,1.42-.15,1.45-.79,2.58-1.67,3.37-1.35,1.72-3.66,2.05-5.59,1.36-.12.5-.24,1.01-.37,1.51-1.11,4.3-5.69,4.41-8.19,2.03-.65,1.24-1.27,2.5-1.88,3.77.15,1.01-.01,2.07-.63,3.05-.35.56-.73,1.1-1.1,1.64,1.1.69,2.2,1.37,3.31,2.04,1.24.76,2.57,1.49,3.92,2.22.13-.48.32-.94.53-1.34.61-1.16,1.78-1.91,2.99-2.3,1.2-.39,2.78-.12,3.85.5,1.2.7,1.8,1.74,2.3,2.99.4,1.02.75,2.06.98,3.14,0,0,0,0,0,0,.86-1.32,1.88-2.45,3.16-3.48,1.4-1.11,2.98-1.99,4.59-2.75.63-.29,1.68-.97,2.45-1.08,1.08-3.61,7.31-5.24,9.3-1.15.18.38.35.78.5,1.2,0,0,0,0,0,0,.13.33.26.65.39.98.23.58.33,1.15.31,1.69,1.13,5.57,1.03,12.61,5.42,15.29.05-.05.1-.09.15-.13.48-.49,1.09-.88,1.82-1.11.22-.09.47-.16.78-.21,1.72-.27,3.6-.61,5.02-1.54,8.25-5.38,16.39-10.92,24.54-16.44,2.72-1.84,3.43-3.84,2.57-6.99-1.12-4.08-2.31-8.13-3.37-12.22-.85-3.3-2.07-6.22-4.98-8.4-5.14-3.87-10.08-8-15.1-12.04-4.02-3.23-7.1-3.4-11.41-.5-6.73,4.52-13.41,9.11-20.18,13.57-2.22,1.46-3.1,3.46-3.35,5.94-.08.85-.3,1.68-.5,2.8"/>
        <path class="cls-2" d="M220.68,57.29c-1.12.5-2.39.56-3.54.12-.39-.15-.76-.31-1.1-.51-6.39-3.7-12.12-8.24-17.01-13.8-2.16-2.46-2.01-3.58.67-5.39,6.82-4.59,13.65-9.18,20.48-13.76,1.77-1.18,4.1-1.09,5.76.23,5.73,4.56,11.45,9.12,17.16,13.7,2.35,1.88,2.32,3.13-.1,4.76-6.67,4.49-13.33,9-20.04,13.43-.72.48-1.51.85-2.29,1.21Z"/>
        <path class="cls-2" d="M196.41,40.79c4.23,6.23,9.88,10.73,15.93,14.77,6.24,4.16,6.85,4.08,13.07-.12,5.92-3.99,11.85-7.96,17.76-11.98.98-.67,1.83-1.51,2.79-2.31,1.42,5.05,2.93,10.23,4.33,15.44.57,2.1-.28,3.84-2.03,5.03-8.09,5.49-16.2,10.96-24.35,16.35-.86.57-2.04.8-3.1.89-2.57.21-3.05-.24-3.75-2.74-1.08-3.9-2.26-7.78-3.26-11.7-.57-2.24-1.81-3.92-3.57-5.32-4.48-3.57-8.9-7.2-13.41-10.73-1-.78-1.35-1.58-1.13-2.79.29-1.57.48-3.16.72-4.79Z"/>
      </g>
      <path class="cls-2" d="M186.32,79.99c-1.67.79-3.65.84-5.25-.08,0,0-.02,0-.02-.01-6.39-3.7-12.12-8.24-17.01-13.8-2.16-2.46-2.01-3.58.67-5.39,6.87-4.62,13.73-9.23,20.6-13.84,1.69-1.13,3.92-1.04,5.51.22,5.77,4.59,11.53,9.18,17.28,13.79,2.35,1.88,2.32,3.13-.1,4.76-6.67,4.49-13.33,9-20.04,13.43-.52.35-1.08.64-1.65.91Z"/>
      <path class="cls-2" d="M161.41,63.79c4.23,6.23,9.88,10.73,15.93,14.77,6.24,4.16,6.85,4.08,13.07-.12,5.92-3.99,11.85-7.96,17.76-11.98.98-.67,1.83-1.51,2.79-2.31,1.42,5.05,2.93,10.23,4.33,15.44.57,2.1-.28,3.84-2.03,5.03-8.09,5.49-16.2,10.96-24.35,16.35-.86.57-2.04.8-3.1.89-2.57.21-3.05-.24-3.75-2.74-1.08-3.9-2.26-7.78-3.26-11.7-.57-2.24-1.81-3.92-3.57-5.32-4.48-3.57-8.9-7.2-13.41-10.73-1-.78-1.35-1.58-1.13-2.79.29-1.57.48-3.16.72-4.79Z"/>
      <g>
        <path class="cls-1" d="M182.07,100.03c-.98-2.85-1.84-5.74-2.47-8.68-1.04-4.84-2.15-9.1-6.88-11.85-3.8-2.21-7.35-4.83-10.4-8-6.56-6.83-10.14-7.55-16.81-2.19-5.54,4.45-11.54,8.24-17.7,11.79-2.57,1.48-3.55,3.59-3.82,6.23-.08.85-.3,1.68-.5,2.8-2.18-1.43-4.29-1.73-6.43-1.22-.93.22-1.75.74-2.49,1.34-.28.23-.61.44-.98.63-.41.21-.81.43-1.21.64-.14.08-.28.16-.43.23-12.5,6.66-12.55,8.77-24.47,16.35-.11.09-10.85,7.23-10.96,7.31-1,.7-1.95,1.34-2.99,1.94.02.01.03.03.05.04-.99.69-1.67,1.17-2.35,1.63-3.95,2.66-7.85,5.4-11.88,7.93-2.92,1.83-3.71,4.59-3.87,7.97-.13,2.82-.43,5.64-1.07,8.39-1.26,5.42.48,9.49,5.3,12.6,5.5,3.54,10.53,7.74,15.19,12.33,4.4,4.33,8.02,4.86,12.49,1.84,7.09-4.79,14.22-9.52,21.29-14.33,2.58-1.75,5.54-3.21,5.95-6.08,2.54-.89,4.84-1.23,6.62-2.39,8.36-5.43,16.61-11.04,24.81-16.71,1-.69,1.74-1.96,2.26-3.12.36-.8,1.08-1.36,1.94-1.5,1.72-.27,3.6-.61,5.02-1.54,8.25-5.38,16.39-10.92,24.54-16.44,2.99-2.02,3.55-4.24,2.27-7.95Z"/>
        <path class="cls-2" d="M58.01,131.64c5.55,7.46,12.5,12.86,20.28,17.26,2.09,1.18,4.16.4,6-.82,6.37-4.23,12.72-8.5,19.07-12.78,1.42-.96,2.78-2.02,4.31-3.14.25.84.57,1.84.86,2.85,1.11,3.89,2.23,7.78,3.31,11.68.72,2.63.18,4.36-2.06,5.88-7.92,5.39-15.88,10.73-23.86,16.04-2.49,1.66-5.76,1.48-8.13-.42-6.22-4.99-12.43-9.99-18.54-15.12-2.44-2.05-3.47-4.74-2.91-8.1.73-4.37,1.12-8.79,1.68-13.33Z"/>
        <path class="cls-2" d="M115.55,92.21c1.84-1.14,4.2-1.2,6.08-.12.18.11.35.22.52.35,5.69,4.42,11.32,8.94,16.94,13.45,2.57,2.06,2.17,3.29-1.14,5.23-6.39,3.73-12.52,7.86-18.37,12.39-3.12,2.42-5.8,2.73-8.99.62-5.66-3.75-11.03-7.8-15.52-12.94-2.42-2.78-2.31-3.66.77-5.75,6.51-4.39,13.01-8.79,19.56-13.13.05-.03.1-.07.16-.1Z"/>
        <path class="cls-2" d="M82.66,147.95c-1.44.69-3.16.74-4.56-.05,0,0-.01,0-.02-.01-6.59-3.77-12.5-8.39-17.46-14.17-2.11-2.46-1.94-3.36.78-5.19,6.96-4.7,13.93-9.4,20.9-14.09,1.48-1,3.44-.92,4.84.18,6.02,4.74,12.01,9.51,17.98,14.31,2,1.6,1.9,2.94-.27,4.4-6.62,4.46-13.22,8.94-19.88,13.35-.74.49-1.53.89-2.33,1.27Z"/>
        <path class="cls-2" d="M151.32,101.99c-1.67.79-3.65.84-5.25-.08,0,0-.02,0-.02-.01-6.39-3.7-12.12-8.24-17.01-13.8-2.16-2.46-2.01-3.58.67-5.39,6.57-4.42,13.14-8.83,19.71-13.25,2.22-1.49,5.15-1.37,7.24.29,5.49,4.37,10.97,8.74,16.44,13.13,2.35,1.88,2.32,3.13-.1,4.76-6.67,4.49-13.33,9-20.04,13.43-.52.35-1.08.64-1.65.91Z"/>
        <path class="cls-2" d="M126.41,85.79c4.23,6.23,9.88,10.73,15.93,14.77,6.24,4.16,6.85,4.08,13.07-.12,5.92-3.99,11.85-7.96,17.76-11.98.98-.67,1.83-1.51,2.79-2.31,1.42,5.05,2.93,10.23,4.33,15.44.57,2.1-.28,3.84-2.03,5.03-8.09,5.49-16.2,10.96-24.35,16.35-.86.57-2.04.8-3.1.89-2.57.21-3.05-.24-3.75-2.74-1.08-3.9-2.26-7.78-3.26-11.7-.57-2.24-1.81-3.92-3.57-5.32-4.48-3.57-8.9-7.2-13.41-10.73-1-.78-1.35-1.58-1.13-2.79.29-1.57.48-3.16.72-4.79Z"/>
        <path class="cls-2" d="M92.22,108.54c3.24,5.1,7.48,8.63,11.85,12.01,2.03,1.57,4.29,2.85,6.36,4.37,2.97,2.19,5.78,1.87,8.71-.13,6.53-4.46,13.14-8.83,19.69-13.26.99-.67,1.88-1.5,2.98-2.38,1.07,3.72,2.17,7.49,3.23,11.27q1.99,7.12-4.14,11.3c-6.71,4.55-13.44,9.06-20.18,13.58-.69.46-1.42.92-2.2,1.19-3.11,1.09-4.81.22-5.7-2.86-1.11-3.83-2.27-7.64-3.24-11.5-.56-2.2-1.81-3.79-3.51-5.15-4.22-3.38-8.38-6.84-12.67-10.13-1.48-1.14-2.29-2.22-1.74-4.16.34-1.21.35-2.52.55-4.15Z"/>
      </g>
      <path class="cls-1" d="M85.69,136.78l-4.51-5.5c-.3-.36-.56-.63-.78-.82-.23-.18-.43-.31-.61-.37-.18-.07-.34-.07-.48-.03-.14.05-.27.12-.38.21-.19.16-.32.37-.37.64-.06.27-.03.53.08.77l5.34,6.5-2.04,1.67-7.37-8.98,1.61-1.32,1.05.79.05-.04c-.11-.49-.1-.98.05-1.47.15-.49.44-.92.88-1.28.37-.31.81-.5,1.31-.59.5-.09,1,.06,1.52.43-.17-.56-.18-1.09,0-1.6.17-.51.46-.93.87-1.27.31-.25.62-.43.93-.54.32-.11.66-.13,1.03-.05.37.08.76.27,1.18.58.42.31.87.77,1.38,1.38l5.04,6.14-2.04,1.67-4.72-5.75c-.44-.54-.83-.85-1.18-.93-.34-.08-.63-.02-.87.17-.2.17-.34.36-.4.59s-.03.47.1.74l5.38,6.56-2.04,1.67Z"/>
      <path class="cls-1" d="M113.61,102.9l3.18-2.6,4.93,6.03.6.73,1.3-1.06,1.56,1.91-2.7,2.21-1.44-.96-.07.06c.1.65,0,1.34-.29,2.06-.29.72-.75,1.34-1.39,1.86-.43.35-.88.62-1.33.8-.45.18-.91.24-1.38.18-.47-.06-.95-.26-1.46-.6-.51-.34-1.04-.85-1.59-1.53l-2.85-3.48-.98.8-1.56-1.91,3.2-2.61,4.02,4.92c.58.7,1.1,1.12,1.58,1.25.48.13.96,0,1.43-.39.42-.34.7-.78.83-1.31.13-.53.11-1.03-.05-1.52l-3.02-3.69-.96.78-1.56-1.91Z"/>
      <path class="cls-1" d="M139.76,84.16l3.74-2.72,1.36,1.2.09-.06c0-.7.17-1.45.53-2.24.36-.79.97-1.5,1.82-2.12.53-.38,1.07-.67,1.64-.86.57-.19,1.14-.24,1.71-.15s1.16.36,1.77.79,1.22,1.06,1.83,1.9l4.91,6.73-2.78,2.02-4.48-6.15c-.64-.88-1.3-1.37-1.98-1.48-.68-.1-1.31.06-1.91.5-.53.38-.89.89-1.1,1.52-.21.63-.22,1.23-.04,1.8l5.11,7.02-2.78,2.02-6.15-8.44-1.54,1.12-1.73-2.38Z"/>
      <path class="cls-1" d="M180.13,54.88l4.3-3.06,6.41,9.01c.74,1.04,1.53,2.03,2.36,2.97.05.07.11.13.17.19l1.32-.94,1.63,2.29-3.31,2.36-1.22-1.14-.08.06c.04.35.01.7-.08,1.06-.1.36-.23.72-.42,1.07s-.42.69-.71,1.01-.6.6-.95.85c-.64.46-1.33.79-2.04.98-.72.2-1.44.23-2.18.09-.74-.14-1.47-.45-2.2-.95-.73-.5-1.42-1.21-2.07-2.12s-1.06-1.78-1.29-2.66c-.23-.89-.27-1.74-.14-2.55.13-.82.43-1.58.89-2.3s1.08-1.35,1.84-1.89c.42-.3.84-.56,1.25-.78.41-.22.79-.37,1.15-.46l-1.38-1.94-1.63,1.16-1.63-2.29ZM188.54,67.87c.52-.37.89-.83,1.11-1.37.22-.54.22-1.1,0-1.68l-3.15-4.42c-.3-.02-.65.06-1.04.22-.39.16-.77.38-1.14.64s-.69.58-.95.96c-.26.37-.43.79-.5,1.25s-.04.96.11,1.51c.15.54.45,1.13.89,1.75.63.89,1.36,1.45,2.19,1.68.82.23,1.65.05,2.47-.53Z"/>
      <path class="cls-1" d="M214.99,43.77c-.65-.92-1.1-1.83-1.33-2.74-.23-.91-.28-1.79-.13-2.64.15-.85.48-1.65,1-2.4.52-.75,1.2-1.43,2.07-2.05.9-.64,1.81-1.08,2.72-1.31s1.78-.27,2.63-.11c.84.16,1.65.5,2.41,1.03.76.53,1.44,1.23,2.05,2.09.65.92,1.1,1.83,1.33,2.74.23.91.28,1.79.13,2.64-.15.85-.48,1.65-1,2.4s-1.2,1.43-2.06,2.04c-.9.64-1.81,1.08-2.72,1.31s-1.78.27-2.63.11c-.85-.15-1.65-.5-2.41-1.03-.76-.53-1.44-1.23-2.05-2.09ZM217.87,41.71c.34.48.72.88,1.14,1.19.42.32.86.54,1.32.67.46.13.92.16,1.39.08.46-.08.92-.28,1.36-.59.83-.59,1.32-1.34,1.46-2.26.14-.91-.2-1.95-1.03-3.11-.71-1-1.54-1.64-2.46-1.91-.93-.27-1.85-.08-2.75.56-.4.29-.73.61-.99.98-.26.37-.41.78-.47,1.24-.05.46,0,.95.15,1.47s.45,1.08.87,1.68Z"/>
    </g>
  </g>
</svg>